<?xml version="1.0" encoding="utf-8" ?>
<svg xmlns="http://www.w3.org/2000/svg" xmlns:xlink="http://www.w3.org/1999/xlink" width="1024" height="1024">
	<path fill="#E1E4FF" transform="scale(2 2)" d="M220.951 164.371C226.721 164.96 232.831 164.388 238.646 164.376L276.262 164.379C278.176 164.387 289.627 165.035 290.582 164.6L290.954 163.6C290.647 170.596 290.965 177.701 290.954 184.711C275.368 184.385 259.705 184.727 244.108 184.723L228.749 184.687C226.217 184.675 223.455 184.428 220.951 184.711L220.951 164.371Z"/>
	<path fill="#6D7CFF" transform="scale(2 2)" d="M186.491 290.021C209.756 289.935 221.018 300.526 220.953 323.969L220.951 325.761C220.949 332.747 220.769 339.779 220.951 346.759C220.673 354.871 219.037 361.965 213.351 368.088C203.165 379.055 190.161 377.271 176.704 377.312C163.468 377.353 151.035 379.383 140.6 369.582C129.725 359.369 131.763 344.491 131.736 331.013C131.685 305.718 136.613 290.631 165.243 290.021L186.491 290.021Z"/>
	<path fill="#E1E4FF" transform="scale(2 2)" d="M159.301 308.481C166.154 308.33 173.043 308.475 179.9 308.472C205.477 308.462 202.55 310.863 202.546 333.309C202.545 342.388 205.753 358.125 192.968 359.547C191.085 359.837 188.959 359.593 187.047 359.575L175.86 359.551C167.323 359.545 152.115 362.272 150.156 352.021C149.372 347.918 149.442 322.052 150.079 317.726C150.84 312.56 154.046 309.26 159.301 308.481Z"/>
	<path fill="white" transform="scale(2 2)" d="M173.039 321.806C188.04 317.13 196.024 342.092 177.963 347.243C159.48 349.896 156.405 323.166 173.039 321.806Z"/>
	<path fill="#6D7CFF" transform="scale(2 2)" d="M326.761 290.021L346.736 290.021C364.58 290.161 380.311 299.593 380.101 318.988L379.96 338.394C380.033 369.444 371.521 377.371 340.653 377.331C326.354 377.313 309.933 379.851 299.038 368.593C293.113 362.471 290.885 355.142 290.954 346.759C290.966 340.059 290.707 333.303 290.954 326.611C290.257 300.233 301.064 290.016 326.761 290.021Z"/>
	<path fill="#E1E4FF" transform="scale(2 2)" d="M319.482 308.481C323.402 307.904 354.291 307.559 357.809 309.904C364.772 314.545 362.22 327.126 362.216 334.193C362.212 343.777 365.145 357.532 352.064 359.547L330.584 359.564C323.123 359.563 311.017 361.298 309.768 350.854C308.98 344.269 308.87 322.237 309.988 316.17C310.867 311.402 314.877 308.956 319.482 308.481Z"/>
	<path fill="white" transform="scale(2 2)" d="M335.972 321.806C350.295 320.6 354.867 346.007 336.563 346.759C322.273 348.502 316.806 325.397 335.972 321.806Z"/>
	<path fill="#6D7CFF" transform="scale(2 2)" d="M290.954 163.6C291.456 135.869 309.055 131.553 332.5 131.611C346.754 131.646 361.162 129.373 372.015 140.89C381.046 150.473 379.951 161.42 379.959 173.592C379.968 187.345 381.951 201.537 370.776 211.928C364.291 217.959 355.629 219.953 346.982 219.631L346.736 219.62C344.551 219.448 342.242 219.594 340.045 219.597L326.761 219.62C302.323 219.911 291.137 209.065 290.954 184.711C290.965 177.701 290.647 170.596 290.954 163.6Z"/>
	<path fill="#E1E4FF" transform="scale(2 2)" d="M319.482 149.495C326.089 149.404 332.704 149.475 339.312 149.481C346.741 149.489 358.841 147.535 361.622 156.744C362.624 160.064 362.528 186.359 362.003 190.626C361.372 195.751 358.31 199.37 353.194 200.672C347.547 201.558 324.668 201.561 318.644 200.848C306.46 199.406 309.44 185.146 309.435 176.484C309.429 166.094 305.843 151.337 319.482 149.495Z"/>
	<path fill="white" transform="scale(2 2)" d="M335.972 162.82C352.045 161.604 354.594 184.728 338.788 188.015C321.152 188.533 319.163 166.133 335.972 162.82Z"/>
	<path fill="#6D7CFF" transform="scale(2 2)" d="M165.243 219.62C155.886 219.587 148.156 217.84 141.125 211.257C130.687 201.484 131.654 191.862 131.758 179.266C131.874 165.228 128.88 152.308 139.659 140.894C150.113 129.824 164.713 131.646 178.487 131.613C184.864 131.597 193.016 130.852 199.073 132.423C215.22 136.612 220.663 149.452 220.951 164.371L220.951 184.711C221.13 206.71 209.591 221.231 186.491 219.62C179.446 219.359 172.299 219.615 165.243 219.62Z"/>
	<path fill="#E1E4FF" transform="scale(2 2)" d="M160.888 149.495C163.489 148.832 178.228 149.561 181.783 149.527C201.507 149.333 202.594 149.712 202.547 169.839C202.528 178.065 205.701 201.612 192.968 201.003C182.848 201.002 172.668 200.749 162.564 201.283C146.395 202.138 149.723 182.221 149.731 171.513C149.737 162.601 148.262 149.493 160.888 149.495Z"/>
	<path fill="white" transform="scale(2 2)" d="M176.129 162.82C191.192 162.52 193.535 186.033 176.129 188.015C159.597 187.87 157.802 164.035 176.129 162.82Z"/>
	<path fill="#E1E4FF" transform="scale(2 2)" d="M326.761 219.62L340.045 219.597C342.242 219.594 344.551 219.448 346.736 219.62L346.72 281.478C346.708 284.317 346.548 287.188 346.736 290.021L326.761 290.021C327.039 286.46 326.827 282.895 326.784 279.328L326.752 265.074C326.741 250.101 326.987 235.071 326.766 220.119L326.761 219.62Z"/>
	<path fill="#E1E4FF" transform="scale(2 2)" d="M220.951 325.761C234.271 325.443 247.696 325.757 261.025 325.756C268.668 325.755 283.741 324.919 290.954 326.611C290.707 333.303 290.966 340.059 290.954 346.759C283.436 346.981 275.846 346.766 268.323 346.763L220.951 346.759C220.769 339.779 220.949 332.747 220.951 325.761Z"/>
	<path fill="#E1E4FF" transform="scale(2 2)" d="M165.243 219.62C172.299 219.615 179.446 219.359 186.491 219.62C186.393 226.181 186.273 289.481 186.491 290.021L165.243 290.021C165.087 279.988 165.245 269.908 165.244 259.867L165.243 219.62Z"/>
	<path fill="#6D7CFF" transform="scale(2 2)" d="M255.643 204.089C261.645 203.977 268.087 210.178 272.85 213.208L289.232 223.711C295.882 227.952 302.623 230.548 303.179 239.405C303.679 247.374 303.906 264.067 303.134 271.754C302.375 279.324 297.492 281.245 291.815 284.909C285.01 289.3 262.276 304.956 256.809 306.244C252.503 306.391 248.868 303.195 245.455 300.976L233.272 293.059C226.81 288.908 219.74 285.136 213.659 280.468C206.415 274.908 208.913 262.661 208.903 254.097C208.895 246.461 206.431 234.574 213.568 229.438C220.05 224.774 249.896 204.773 255.643 204.089Z"/>
	<path fill="white" transform="scale(2 2)" d="M255.643 224.458C257.243 224.507 281.196 240.559 284.629 242.849L284.629 268.287C275.499 274.325 265.475 279.548 256.809 286.23C253.996 286.74 249.557 282.386 247.223 280.902L227.298 268.287C227.62 259.854 227.308 251.295 227.298 242.849C230.66 240.942 233.887 238.683 237.128 236.576L255.643 224.458Z"/>
</svg>
